<svg width="34" height="34" viewBox="0 0 34 34" fill="none" xmlns="http://www.w3.org/2000/svg">
<rect width="34" height="34" rx="5" fill="white"/>
<path fill-rule="evenodd" clip-rule="evenodd" d="M19.7841 20.5797C20.0038 20.7994 20.3599 20.7994 20.5796 20.5797C20.7993 20.36 20.7993 20.0039 20.5796 19.7842L17.7954 17L20.5796 14.2158C20.7992 13.9961 20.7992 13.6399 20.5796 13.4203C20.3599 13.2006 20.0038 13.2006 19.7841 13.4203L16.9999 16.2045L14.2156 13.4202C13.996 13.2006 13.6398 13.2006 13.4201 13.4202C13.2005 13.6399 13.2005 13.9961 13.4201 14.2157L16.2044 17L13.4201 19.7842C13.2005 20.0039 13.2005 20.3601 13.4201 20.5797C13.6398 20.7994 13.9959 20.7994 14.2156 20.5797L16.9999 17.7955L19.7841 20.5797Z" fill="#101316"/>
</svg>
