<svg width="20" height="20" viewBox="0 0 20 20" fill="none" xmlns="http://www.w3.org/2000/svg">
<path d="M8.3607 2.72614C9.03127 1.31346 10.9688 1.31346 11.6393 2.72613L12.7983 5.16761C13.0645 5.72858 13.5793 6.11741 14.1747 6.20736L16.7661 6.59887C18.2656 6.8254 18.8643 8.74125 17.7793 9.84086L15.9041 11.7413C15.4733 12.1779 15.2767 12.8071 15.3784 13.4236L15.821 16.1071C16.0772 17.6598 14.5097 18.8438 13.1686 18.1107L10.8507 16.8438C10.3181 16.5527 9.6819 16.5527 9.14933 16.8438L6.83149 18.1107C5.49035 18.8438 3.92287 17.6598 4.17901 16.1071L4.62168 13.4236C4.72339 12.8071 4.52678 12.1779 4.09592 11.7413L2.22075 9.84086C1.13574 8.74125 1.73446 6.82541 3.2339 6.59887L5.82533 6.20736C6.42076 6.11741 6.93549 5.72858 7.20178 5.16761L8.3607 2.72614Z" fill="#FFC11F"/>
</svg>
