<svg width="36" height="24" viewBox="0 0 36 24" fill="none" xmlns="http://www.w3.org/2000/svg">
<rect width="36" height="24" rx="2.4" fill="white"/>
<path d="M24.3742 7.86964C23.9308 7.69373 23.2275 7.49951 22.3579 7.49951C20.138 7.49951 18.5748 8.68329 18.5652 10.3757C18.5467 11.6244 19.6844 12.318 20.5353 12.7343C21.405 13.1598 21.7007 13.4374 21.7007 13.8167C21.6918 14.3991 20.9979 14.6676 20.3507 14.6676C19.4532 14.6676 18.9723 14.5292 18.2415 14.2051L17.9455 14.0662L17.6309 16.0178C18.1582 16.258 19.1295 16.4711 20.138 16.4805C22.4967 16.4805 24.0323 15.315 24.0505 13.5114C24.0595 12.5218 23.4587 11.7634 22.1636 11.1438C21.3774 10.746 20.8959 10.4778 20.8959 10.0708C20.9051 9.70075 21.3031 9.32176 22.1906 9.32176C22.9214 9.3032 23.4584 9.47886 23.8651 9.65465L24.0685 9.74696L24.3742 7.86964Z" fill="#3362AB"/>
<path d="M16.2252 16.3509H13.9772L15.3833 7.6571H17.6311L16.2252 16.3509Z" fill="#3362AB"/>
<path fill-rule="evenodd" clip-rule="evenodd" d="M30.1367 7.6571H28.3979C27.8617 7.6571 27.4543 7.8142 27.223 8.37843L23.8839 16.3508H26.2426C26.2426 16.3508 26.631 15.2778 26.7144 15.0467H29.6006C29.6651 15.3519 29.8688 16.3508 29.8688 16.3508H31.9502L30.1367 7.6571ZM27.3619 13.271C27.547 12.7716 28.2593 10.8385 28.2593 10.8385C28.2556 10.846 28.2846 10.7657 28.3278 10.6459L28.3283 10.6445L28.3286 10.6435C28.3932 10.4646 28.489 10.1991 28.5551 10.0062L28.7122 10.7553C28.7122 10.7553 29.1379 12.8363 29.2303 13.271H27.3619Z" fill="#3362AB"/>
<path d="M12.0997 7.6571L9.89818 13.5855L9.65761 12.3831L9.65739 12.3824L8.87138 8.3879C8.74194 7.83264 8.34415 7.67542 7.85392 7.6571H4.2372L4.2002 7.83276C5.0823 8.05833 5.87126 8.38338 6.56256 8.78754L8.56615 16.3417H10.9433L14.4767 7.6571H12.0997Z" fill="#3362AB"/>
</svg>
