<svg width="179" height="35" viewBox="0 0 179 35" fill="none" xmlns="http://www.w3.org/2000/svg">
<g clip-path="url(#clip0_31_658)">
<path d="M6.81177 15.075H22.2183V20.8014H6.81177V15.075ZM7.36037 28.164H24.7784V34.0722H0V2.25881H24.1841V8.167H7.36037V28.164Z" fill="#101316"/>
<path d="M30.1683 34.0722V0.350006H37.3001V34.0722H30.1683Z" fill="#101316"/>
<path d="M56.1253 34.4357C53.3214 34.4357 50.8527 33.8904 48.7192 32.7996C46.6163 31.7089 44.9857 30.2243 43.8276 28.3458C42.6694 26.437 42.0903 24.2706 42.0903 21.8467C42.0903 19.3926 42.6542 17.2262 43.7818 15.3477C44.94 13.4389 46.5096 11.9543 48.4906 10.8939C50.4717 9.80312 52.7118 9.25775 55.211 9.25775C57.6187 9.25775 59.7826 9.77282 61.7027 10.803C63.6533 11.8028 65.1924 13.2571 66.3201 15.1659C67.4478 17.0444 68.0116 19.3017 68.0116 21.9376C68.0116 22.2103 67.9964 22.5285 67.9659 22.892C67.9354 23.2253 67.905 23.5435 67.8745 23.8464H31.6355V19.7107H64.1257L61.3827 20.9378C61.3827 19.6653 61.1237 18.5594 60.6055 17.6201C60.0874 16.6809 59.3712 15.9537 58.4569 15.4386C57.5425 14.8933 56.4758 14.6206 55.2567 14.6206C54.0376 14.6206 52.9556 14.8933 52.0108 15.4386C51.0965 15.9537 50.3803 16.696 49.8621 17.6656C49.344 18.6048 49.085 19.7259 49.085 21.0287V22.1194C49.085 23.4526 49.3745 24.6342 49.9536 25.6643C50.5631 26.6642 51.4013 27.4368 52.468 27.9822C53.5652 28.4972 54.8452 28.7548 56.3082 28.7548C57.6187 28.7548 58.7616 28.5578 59.7369 28.164C60.7427 27.7701 61.657 27.1793 62.4799 26.3915L66.2744 30.4818C65.1467 31.7543 63.7295 32.739 62.0228 33.4359C60.316 34.1025 58.3502 34.4357 56.1253 34.4357Z" fill="#101316"/>
<path d="M84.646 34.4357C81.9945 34.4357 79.6324 33.9055 77.56 32.8451C75.4875 31.7543 73.8569 30.2546 72.6683 28.3458C71.5101 26.437 70.9311 24.2706 70.9311 21.8467C70.9311 19.3926 71.5101 17.2262 72.6683 15.3477C73.8569 13.4389 75.4875 11.9543 77.56 10.8939C79.6324 9.80312 81.9945 9.25775 84.646 9.25775C87.2366 9.25775 89.492 9.80312 91.4121 10.8939C93.3322 11.9543 94.7494 13.4844 95.6637 15.4841L90.132 18.4382C89.492 17.2868 88.6843 16.4385 87.709 15.8931C86.7642 15.3477 85.728 15.075 84.6003 15.075C83.3812 15.075 82.284 15.3477 81.3087 15.8931C80.3334 16.4385 79.5563 17.2111 78.9772 18.2109C78.4286 19.2108 78.1543 20.4227 78.1543 21.8467C78.1543 23.2708 78.4286 24.4827 78.9772 25.4826C79.5563 26.4824 80.3334 27.255 81.3087 27.8004C82.284 28.3458 83.3812 28.6184 84.6003 28.6184C85.728 28.6184 86.7642 28.3609 87.709 27.8458C88.6843 27.3005 89.492 26.437 90.132 25.2553L95.6637 28.2549C94.7494 30.2243 93.3322 31.7543 91.4121 32.8451C89.492 33.9055 87.2366 34.4357 84.646 34.4357Z" fill="#101316"/>
<path d="M110.185 34.4357C107.289 34.4357 105.034 33.7086 103.419 32.2543C101.803 30.7696 100.996 28.573 100.996 25.6643V0.350006H108.128V25.5735C108.128 26.6036 108.402 27.4065 108.95 27.9822C109.499 28.5275 110.246 28.8002 111.191 28.8002C112.318 28.8002 113.278 28.4972 114.071 27.8913L115.991 32.8905C115.259 33.4056 114.375 33.7995 113.339 34.0722C112.333 34.3145 111.282 34.4357 110.185 34.4357ZM97.2013 15.6204V10.1667H114.254V15.6204H97.2013Z" fill="#101316"/>
<path d="M119.994 34.0722V9.62133H126.806V16.5294L125.846 14.5297C126.577 12.8027 127.751 11.4998 129.366 10.6212C130.981 9.71222 132.947 9.25775 135.264 9.25775V15.8022C134.959 15.7719 134.684 15.7568 134.441 15.7568C134.197 15.7265 133.938 15.7113 133.663 15.7113C131.713 15.7113 130.128 16.2718 128.909 17.3929C127.72 18.4836 127.126 20.1955 127.126 22.5285V34.0722H119.994Z" fill="#101316"/>
<path d="M151.029 34.4357C148.408 34.4357 146.076 33.8904 144.034 32.7996C142.023 31.7089 140.423 30.2243 139.234 28.3458C138.076 26.437 137.497 24.2706 137.497 21.8467C137.497 19.3926 138.076 17.2262 139.234 15.3477C140.423 13.4389 142.023 11.9543 144.034 10.8939C146.076 9.80312 148.408 9.25775 151.029 9.25775C153.62 9.25775 155.936 9.80312 157.978 10.8939C160.02 11.9543 161.62 13.4238 162.778 15.3023C163.936 17.1808 164.515 19.3623 164.515 21.8467C164.515 24.2706 163.936 26.437 162.778 28.3458C161.62 30.2243 160.02 31.7089 157.978 32.7996C155.936 33.8904 153.62 34.4357 151.029 34.4357ZM151.029 28.6184C152.218 28.6184 153.284 28.3458 154.229 27.8004C155.174 27.255 155.921 26.4824 156.469 25.4826C157.018 24.4524 157.292 23.2405 157.292 21.8467C157.292 20.4227 157.018 19.2108 156.469 18.2109C155.921 17.2111 155.174 16.4385 154.229 15.8931C153.284 15.3477 152.218 15.075 151.029 15.075C149.84 15.075 148.774 15.3477 147.829 15.8931C146.884 16.4385 146.122 17.2111 145.543 18.2109C144.994 19.2108 144.72 20.4227 144.72 21.8467C144.72 23.2405 144.994 24.4524 145.543 25.4826C146.122 26.4824 146.884 27.255 147.829 27.8004C148.774 28.3458 149.84 28.6184 151.029 28.6184Z" fill="#101316"/>
<path d="M173.081 34.6405C172.027 34.6405 171.09 34.419 170.27 33.976C169.461 33.533 168.818 32.93 168.341 32.1671C167.875 31.3919 167.643 30.512 167.643 29.5276C167.643 28.5309 167.875 27.651 168.341 26.8881C168.818 26.1129 169.461 25.5099 170.27 25.0792C171.09 24.6362 172.027 24.4147 173.081 24.4147C174.122 24.4147 175.053 24.6362 175.873 25.0792C176.694 25.5099 177.337 26.1067 177.802 26.8696C178.268 27.6326 178.5 28.5186 178.5 29.5276C178.5 30.512 178.268 31.3919 177.802 32.1671C177.337 32.93 176.694 33.533 175.873 33.976C175.053 34.419 174.122 34.6405 173.081 34.6405ZM173.081 32.2778C173.558 32.2778 173.987 32.1671 174.367 31.9456C174.746 31.7241 175.046 31.4103 175.267 31.0042C175.487 30.5859 175.598 30.0936 175.598 29.5276C175.598 28.9492 175.487 28.457 175.267 28.051C175.046 27.6449 174.746 27.3311 174.367 27.1096C173.987 26.8881 173.558 26.7774 173.081 26.7774C172.603 26.7774 172.174 26.8881 171.795 27.1096C171.415 27.3311 171.109 27.6449 170.876 28.051C170.656 28.457 170.545 28.9492 170.545 29.5276C170.545 30.0936 170.656 30.5859 170.876 31.0042C171.109 31.4103 171.415 31.7241 171.795 31.9456C172.174 32.1671 172.603 32.2778 173.081 32.2778Z" fill="#1C4E8E"/>
</g>
<defs>
<clipPath id="clip0_31_658">
<rect width="178.5" height="35" fill="white"/>
</clipPath>
</defs>
</svg>
